<svg width="48" height="48" viewBox="0 0 48 48" fill="none" xmlns="http://www.w3.org/2000/svg">
<path d="M13.3333 0C5.97067 0 0 5.97067 0 13.3333V34.6667C0 42.0293 5.97067 48 13.3333 48H34.6667C42.0293 48 48 42.0293 48 34.6667V13.3333C48 5.97067 42.0293 0 34.6667 0H13.3333ZM40 5.33333C41.472 5.33333 42.6667 6.528 42.6667 8C42.6667 9.472 41.472 10.6667 40 10.6667C38.528 10.6667 37.3333 9.472 37.3333 8C37.3333 6.528 38.528 5.33333 40 5.33333ZM24 10.6667C31.3627 10.6667 37.3333 16.6373 37.3333 24C37.3333 31.3627 31.3627 37.3333 24 37.3333C16.6373 37.3333 10.6667 31.3627 10.6667 24C10.6667 16.6373 16.6373 10.6667 24 10.6667ZM24 16C21.8783 16 19.8434 16.8429 18.3431 18.3431C16.8429 19.8434 16 21.8783 16 24C16 26.1217 16.8429 28.1566 18.3431 29.6569C19.8434 31.1571 21.8783 32 24 32C26.1217 32 28.1566 31.1571 29.6569 29.6569C31.1571 28.1566 32 26.1217 32 24C32 21.8783 31.1571 19.8434 29.6569 18.3431C28.1566 16.8429 26.1217 16 24 16Z" fill="white"/>
</svg>
