<svg width="48" height="48" viewBox="0 0 48 48" fill="none" xmlns="http://www.w3.org/2000/svg">
<path d="M42.6667 0H5.33333C2.38667 0 0 2.38667 0 5.33333V42.6667C0 45.6133 2.38667 48 5.33333 48H42.6667C45.6133 48 48 45.6133 48 42.6667V5.33333C48 2.38667 45.6133 0 42.6667 0ZM16 37.3333H9.272V18.6667H16V37.3333ZM12.5173 15.2453C10.4613 15.2453 9.088 13.8747 9.088 12.0453C9.088 10.216 10.4587 8.84533 12.744 8.84533C14.8 8.84533 16.1733 10.216 16.1733 12.0453C16.1733 13.8747 14.8027 15.2453 12.5173 15.2453ZM40 37.3333H33.488V27.1307C33.488 24.3093 31.752 23.6587 31.1013 23.6587C30.4507 23.6587 28.28 24.0933 28.28 27.1307C28.28 27.5653 28.28 37.3333 28.28 37.3333H21.552V18.6667H28.28V21.272C29.1467 19.752 30.8827 18.6667 34.1387 18.6667C37.3947 18.6667 40 21.272 40 27.1307V37.3333Z" fill="white"/>
</svg>
